<svg xmlns="http://www.w3.org/2000/svg" width="760" height="270" viewBox="0 0 760 270">
<title>三处 new 对一个组合根</title>
<defs><marker id="ah" markerWidth="7" markerHeight="7" refX="6" refY="3.5" orient="auto">
<path d="M0,0 L7,3.5 L0,7" fill="none" stroke="rgba(60,60,67,.30)" stroke-width="1.4"/></marker></defs>
<rect width="760" height="270" fill="#FFFFFF"/>
<g font-family='-apple-system,"SF Pro Text","PingFang SC","Helvetica Neue",sans-serif'><text x="24" y="30" font-size="13.5" fill="rgba(60,60,67,.60)" text-anchor="start" font-family='-apple-system,"SF Pro Text","PingFang SC","Helvetica Neue",sans-serif'>散落的创建：三处各 new 一个</text><rect x="24" y="44" width="200" height="40" rx="10" fill="#F5F5F7" stroke="none" stroke-width="1.5"/><text x="124" y="68" font-size="13" fill="#1D1D1F" text-anchor="middle" font-family='"SF Mono",ui-monospace,Menlo,monospace'>main.ts</text><path d="M224,64 L268,64" stroke="rgba(60,60,67,.30)" stroke-width="1.5" fill="none" marker-end="url(#ah)"/><rect x="268" y="44" width="180" height="40" rx="10" fill="rgba(255,59,48,.08)" stroke="none" stroke-width="1.5"/><text x="358" y="67" font-size="11.5" fill="#FF3B30" text-anchor="middle" font-family='"SF Mono",ui-monospace,Menlo,monospace'>new LocalStorage…</text><rect x="24" y="104" width="200" height="40" rx="10" fill="#F5F5F7" stroke="none" stroke-width="1.5"/><text x="124" y="128" font-size="13" fill="#1D1D1F" text-anchor="middle" font-family='"SF Mono",ui-monospace,Menlo,monospace'>settings-panel.ts</text><path d="M224,124 L268,124" stroke="rgba(60,60,67,.30)" stroke-width="1.5" fill="none" marker-end="url(#ah)"/><rect x="268" y="104" width="180" height="40" rx="10" fill="rgba(255,59,48,.08)" stroke="none" stroke-width="1.5"/><text x="358" y="127" font-size="11.5" fill="#FF3B30" text-anchor="middle" font-family='"SF Mono",ui-monospace,Menlo,monospace'>new LocalStorage…</text><rect x="24" y="164" width="200" height="40" rx="10" fill="#F5F5F7" stroke="none" stroke-width="1.5"/><text x="124" y="188" font-size="13" fill="#1D1D1F" text-anchor="middle" font-family='"SF Mono",ui-monospace,Menlo,monospace'>export.ts</text><path d="M224,184 L268,184" stroke="rgba(60,60,67,.30)" stroke-width="1.5" fill="none" marker-end="url(#ah)"/><rect x="268" y="164" width="180" height="40" rx="10" fill="rgba(255,59,48,.08)" stroke="none" stroke-width="1.5"/><text x="358" y="187" font-size="11.5" fill="#FF3B30" text-anchor="middle" font-family='"SF Mono",ui-monospace,Menlo,monospace'>new LocalStorage…</text><text x="24" y="216" font-size="12.5" fill="#FF3B30" text-anchor="start" font-family='-apple-system,"SF Pro Text","PingFang SC","Helvetica Neue",sans-serif'>配置会漂移，状态会分裂，测试换不掉</text><text x="500" y="30" font-size="13.5" fill="rgba(60,60,67,.60)" text-anchor="start" font-family='-apple-system,"SF Pro Text","PingFang SC","Helvetica Neue",sans-serif'>一个组合根</text><rect x="500" y="44" width="230" height="40" rx="10" fill="rgba(0,199,190,.10)" stroke="#00C7BE" stroke-width="1.5"/><text x="615" y="68" font-size="13" fill="#00A69E" text-anchor="middle" font-family='"SF Mono",ui-monospace,Menlo,monospace'>main.ts</text><path d="M615,84 L615,108" stroke="rgba(60,60,67,.30)" stroke-width="1.5" fill="none" marker-end="url(#ah)"/><rect x="500" y="108" width="230" height="38" rx="10" fill="rgba(0,199,190,.10)" stroke="none" stroke-width="1.5"/><text x="615" y="131" font-size="11.5" fill="#00A69E" text-anchor="middle" font-family='"SF Mono",ui-monospace,Menlo,monospace'>new LocalNoteStore()</text><path d="M615,146 L615,170" stroke="rgba(60,60,67,.30)" stroke-width="1.5" fill="none" marker-end="url(#ah)"/><rect x="500" y="170" width="230" height="40" rx="10" fill="#F5F5F7" stroke="none" stroke-width="1.5"/><text x="615" y="194" font-size="13" fill="#1D1D1F" text-anchor="middle">界面 / 设置 / 导出</text><text x="500" y="224" font-size="12.5" fill="#00A69E" text-anchor="start" font-family='-apple-system,"SF Pro Text","PingFang SC","Helvetica Neue",sans-serif'>只有这一处知道用的哪个实现</text></g>
</svg>